{
	"accessors" : 
	[
		{
			"bufferView" : 2,
			"byteOffset" : 0,
			"componentType" : 5126,
			"count" : 11096,
			"max" : 
			[
				1,
				1,
				1,
				1
			],
			"min" : 
			[
				5.692175545846112e-05,
				0.006584956776350737,
				0.006584956776350737,
				1
			],
			"name" : "accessor_color_m0-PolyPaper19_-135132",
			"type" : "VEC4"
		},
		{
			"bufferView" : 2,
			"byteOffset" : 177536,
			"componentType" : 5126,
			"count" : 12171,
			"max" : 
			[
				1,
				1,
				1,
				1
			],
			"min" : 
			[
				5.692175545846112e-05,
				0.006584956776350737,
				0,
				1
			],
			"name" : "accessor_color_m1-PolyPaper18_-135138",
			"type" : "VEC4"
		},
		{
			"bufferView" : 2,
			"byteOffset" : 372272,
			"componentType" : 5126,
			"count" : 17477,
			"max" : 
			[
				1,
				1,
				1,
				1
			],
			"min" : 
			[
				0,
				0.006584956776350737,
				0,
				1
			],
			"name" : "accessor_color_m2-PolyPaper19_-135144",
			"type" : "VEC4"
		},
		{
			"bufferView" : 2,
			"byteOffset" : 651904,
			"componentType" : 5126,
			"count" : 1614,
			"max" : 
			[
				1,
				1,
				1,
				1
			],
			"min" : 
			[
				1,
				1,
				1,
				1
			],
			"name" : "accessor_color_m3-PolyGlass24_-135150",
			"type" : "VEC4"
		},
		{
			"bufferView" : 2,
			"byteOffset" : 677728,
			"componentType" : 5126,
			"count" : 19994,
			"max" : 
			[
				1,
				1,
				1,
				1
			],
			"min" : 
			[
				0,
				0.006584956776350737,
				0,
				1
			],
			"name" : "accessor_color_m4-PolyPaper20_-135156",
			"type" : "VEC4"
		},
		{
			"bufferView" : 2,
			"byteOffset" : 997632,
			"componentType" : 5126,
			"count" : 14851,
			"max" : 
			[
				1,
				1,
				1,
				1
			],
			"min" : 
			[
				0,
				0.006584956776350737,
				0,
				1
			],
			"name" : "accessor_color_m5-PolyPaper21_-135162",
			"type" : "VEC4"
		},
		{
			"bufferView" : 2,
			"byteOffset" : 1235248,
			"componentType" : 5126,
			"count" : 6703,
			"max" : 
			[
				1,
				0.835527777671814,
				0.7226724624633789,
				1
			],
			"min" : 
			[
				0,
				0.006584956776350737,
				0,
				1
			],
			"name" : "accessor_color_m6-PolyPaper20_-135168",
			"type" : "VEC4"
		},
		{
			"bufferView" : 0,
			"byteOffset" : 0,
			"componentType" : 5123,
			"count" : 16494,
			"max" : 
			[
				11095
			],
			"min" : 
			[
				0
			],
			"name" : "accessor_indices_0_m0-PolyPaper19_-135132",
			"type" : "SCALAR"
		},
		{
			"bufferView" : 0,
			"byteOffset" : 32988,
			"componentType" : 5123,
			"count" : 18135,
			"max" : 
			[
				12170
			],
			"min" : 
			[
				0
			],
			"name" : "accessor_indices_0_m1-PolyPaper18_-135138",
			"type" : "SCALAR"
		},
		{
			"bufferView" : 0,
			"byteOffset" : 69258,
			"componentType" : 5123,
			"count" : 26727,
			"max" : 
			[
				17476
			],
			"min" : 
			[
				0
			],
			"name" : "accessor_indices_0_m2-PolyPaper19_-135144",
			"type" : "SCALAR"
		},
		{
			"bufferView" : 0,
			"byteOffset" : 122712,
			"componentType" : 5123,
			"count" : 2520,
			"max" : 
			[
				1613
			],
			"min" : 
			[
				0
			],
			"name" : "accessor_indices_0_m3-PolyGlass24_-135150",
			"type" : "SCALAR"
		},
		{
			"bufferView" : 0,
			"byteOffset" : 127752,
			"componentType" : 5123,
			"count" : 30696,
			"max" : 
			[
				19993
			],
			"min" : 
			[
				0
			],
			"name" : "accessor_indices_0_m4-PolyPaper20_-135156",
			"type" : "SCALAR"
		},
		{
			"bufferView" : 0,
			"byteOffset" : 189144,
			"componentType" : 5123,
			"count" : 23457,
			"max" : 
			[
				14850
			],
			"min" : 
			[
				0
			],
			"name" : "accessor_indices_0_m5-PolyPaper21_-135162",
			"type" : "SCALAR"
		},
		{
			"bufferView" : 0,
			"byteOffset" : 236058,
			"componentType" : 5123,
			"count" : 10095,
			"max" : 
			[
				6702
			],
			"min" : 
			[
				0
			],
			"name" : "accessor_indices_0_m6-PolyPaper20_-135168",
			"type" : "SCALAR"
		},
		{
			"bufferView" : 1,
			"byteOffset" : 133152,
			"componentType" : 5126,
			"count" : 11096,
			"max" : 
			[
				1,
				1,
				1
			],
			"min" : 
			[
				-1,
				-1,
				-1
			],
			"name" : "accessor_normal_m0-PolyPaper19_-135132",
			"type" : "VEC3"
		},
		{
			"bufferView" : 1,
			"byteOffset" : 412356,
			"componentType" : 5126,
			"count" : 12171,
			"max" : 
			[
				1,
				1,
				1
			],
			"min" : 
			[
				-1,
				-1,
				-1
			],
			"name" : "accessor_normal_m1-PolyPaper18_-135138",
			"type" : "VEC3"
		},
		{
			"bufferView" : 1,
			"byteOffset" : 768132,
			"componentType" : 5126,
			"count" : 17477,
			"max" : 
			[
				1,
				1,
				1
			],
			"min" : 
			[
				-1,
				-1,
				-1
			],
			"name" : "accessor_normal_m2-PolyPaper19_-135144",
			"type" : "VEC3"
		},
		{
			"bufferView" : 1,
			"byteOffset" : 997224,
			"componentType" : 5126,
			"count" : 1614,
			"max" : 
			[
				0.9998131,
				1,
				0.9988595
			],
			"min" : 
			[
				-0.9998135,
				-1,
				-0.9991444
			],
			"name" : "accessor_normal_m3-PolyGlass24_-135150",
			"type" : "VEC3"
		},
		{
			"bufferView" : 1,
			"byteOffset" : 1256520,
			"componentType" : 5126,
			"count" : 19994,
			"max" : 
			[
				1,
				1,
				1
			],
			"min" : 
			[
				-1,
				-1,
				-1
			],
			"name" : "accessor_normal_m4-PolyPaper20_-135156",
			"type" : "VEC3"
		},
		{
			"bufferView" : 1,
			"byteOffset" : 1674660,
			"componentType" : 5126,
			"count" : 14851,
			"max" : 
			[
				1,
				1,
				1
			],
			"min" : 
			[
				-1,
				-1,
				-1
			],
			"name" : "accessor_normal_m5-PolyPaper21_-135162",
			"type" : "VEC3"
		},
		{
			"bufferView" : 1,
			"byteOffset" : 1933308,
			"componentType" : 5126,
			"count" : 6703,
			"max" : 
			[
				1,
				1,
				1
			],
			"min" : 
			[
				-1,
				-1,
				-1
			],
			"name" : "accessor_normal_m6-PolyPaper20_-135168",
			"type" : "VEC3"
		},
		{
			"bufferView" : 1,
			"byteOffset" : 0,
			"componentType" : 5126,
			"count" : 11096,
			"max" : 
			[
				0.1800807,
				-0.6500039,
				0.9399362999999999
			],
			"min" : 
			[
				-1.399919,
				-1.800059,
				-0.930001
			],
			"name" : "accessor_position_m0-PolyPaper19_-135132",
			"type" : "VEC3"
		},
		{
			"bufferView" : 1,
			"byteOffset" : 266304,
			"componentType" : 5126,
			"count" : 12171,
			"max" : 
			[
				0.1784625,
				-1.160076,
				0.9141994
			],
			"min" : 
			[
				-1.353673,
				-1.814246,
				-0.783332
			],
			"name" : "accessor_position_m1-PolyPaper18_-135138",
			"type" : "VEC3"
		},
		{
			"bufferView" : 1,
			"byteOffset" : 558408,
			"componentType" : 5126,
			"count" : 17477,
			"max" : 
			[
				0.2000828,
				-1.129946,
				0.9084597
			],
			"min" : 
			[
				-1.38999,
				-1.805443,
				-0.4721494
			],
			"name" : "accessor_position_m2-PolyPaper19_-135144",
			"type" : "VEC3"
		},
		{
			"bufferView" : 1,
			"byteOffset" : 977856,
			"componentType" : 5126,
			"count" : 1614,
			"max" : 
			[
				-0.499847,
				-1.227863,
				0.3300298
			],
			"min" : 
			[
				-0.9310808,
				-1.758684,
				-0.5348045
			],
			"name" : "accessor_position_m3-PolyGlass24_-135150",
			"type" : "VEC3"
		},
		{
			"bufferView" : 1,
			"byteOffset" : 1016592,
			"componentType" : 5126,
			"count" : 19994,
			"max" : 
			[
				0.1350109,
				-1.142585,
				0.9105896
			],
			"min" : 
			[
				-1.360362,
				-1.792585,
				-0.6100749
			],
			"name" : "accessor_position_m4-PolyPaper20_-135156",
			"type" : "VEC3"
		},
		{
			"bufferView" : 1,
			"byteOffset" : 1496448,
			"componentType" : 5126,
			"count" : 14851,
			"max" : 
			[
				0.1749269,
				-0.6699967,
				0.9156492000000001
			],
			"min" : 
			[
				-1.352897,
				-1.767988,
				-0.7670623
			],
			"name" : "accessor_position_m5-PolyPaper21_-135162",
			"type" : "VEC3"
		},
		{
			"bufferView" : 1,
			"byteOffset" : 1852872,
			"componentType" : 5126,
			"count" : 6703,
			"max" : 
			[
				0.1777573,
				-0.549979,
				0.9203915
			],
			"min" : 
			[
				-1.360362,
				-1.812464,
				-0.5635222
			],
			"name" : "accessor_position_m6-PolyPaper20_-135168",
			"type" : "VEC3"
		}
	],
	"asset" : 
	{
		"copyright" : "Unknown",
		"generator" : "glTF 1-to-2 Upgrader for Google Blocks",
		"version" : "2.0"
	},
	"bufferViews" : 
	[
		{
			"buffer" : 0,
			"byteLength" : 256248,
			"byteOffset" : 0,
			"name" : "ushortBufferView",
			"target" : 34963
		},
		{
			"buffer" : 0,
			"byteLength" : 2013744,
			"byteOffset" : 256248,
			"byteStride" : 12,
			"name" : "vec3BufferView",
			"target" : 34962
		},
		{
			"buffer" : 0,
			"byteLength" : 1342496,
			"byteOffset" : 2269992,
			"byteStride" : 16,
			"name" : "vec4BufferView",
			"target" : 34962
		}
	],
	"buffers" : 
	[
		{
			"byteLength" : 3612488,
			"name" : "model",
			"uri" : "model.bin"
		}
	],
	"materials" : 
	[
		{
			"alphaMode" : "OPAQUE",
			"doubleSided" : false,
			"name" : "BlocksPaper",
			"pbrMetallicRoughness" : 
			{
				"baseColorFactor" : 
				[
					1,
					1,
					1,
					1
				],
				"metallicFactor" : 0,
				"roughnessFactor" : 0.6
			}
		},
		{
			"alphaMode" : "BLEND",
			"doubleSided" : false,
			"name" : "BlocksGlass",
			"pbrMetallicRoughness" : 
			{
				"baseColorFactor" : 
				[
					0.2,
					0.2,
					1,
					0.3
				],
				"metallicFactor" : 1,
				"roughnessFactor" : 0.4
			}
		},
		{
			"alphaMode" : "OPAQUE",
			"doubleSided" : true,
			"name" : "BlocksGem",
			"pbrMetallicRoughness" : 
			{
				"baseColorFactor" : 
				[
					1,
					0.4,
					1,
					1
				],
				"metallicFactor" : 0,
				"roughnessFactor" : 0.1
			}
		}
	],
	"meshes" : 
	[
		{
			"name" : "mesh_m0-PolyPaper19_-135132",
			"primitives" : 
			[
				{
					"attributes" : 
					{
						"COLOR_0" : 0,
						"NORMAL" : 14,
						"POSITION" : 21
					},
					"indices" : 7,
					"material" : 0,
					"mode" : 4
				}
			]
		},
		{
			"name" : "mesh_m1-PolyPaper18_-135138",
			"primitives" : 
			[
				{
					"attributes" : 
					{
						"COLOR_0" : 1,
						"NORMAL" : 15,
						"POSITION" : 22
					},
					"indices" : 8,
					"material" : 0,
					"mode" : 4
				}
			]
		},
		{
			"name" : "mesh_m2-PolyPaper19_-135144",
			"primitives" : 
			[
				{
					"attributes" : 
					{
						"COLOR_0" : 2,
						"NORMAL" : 16,
						"POSITION" : 23
					},
					"indices" : 9,
					"material" : 0,
					"mode" : 4
				}
			]
		},
		{
			"name" : "mesh_m3-PolyGlass24_-135150",
			"primitives" : 
			[
				{
					"attributes" : 
					{
						"COLOR_0" : 3,
						"NORMAL" : 17,
						"POSITION" : 24
					},
					"indices" : 10,
					"material" : 1,
					"mode" : 4
				}
			]
		},
		{
			"name" : "mesh_m4-PolyPaper20_-135156",
			"primitives" : 
			[
				{
					"attributes" : 
					{
						"COLOR_0" : 4,
						"NORMAL" : 18,
						"POSITION" : 25
					},
					"indices" : 11,
					"material" : 0,
					"mode" : 4
				}
			]
		},
		{
			"name" : "mesh_m5-PolyPaper21_-135162",
			"primitives" : 
			[
				{
					"attributes" : 
					{
						"COLOR_0" : 5,
						"NORMAL" : 19,
						"POSITION" : 26
					},
					"indices" : 12,
					"material" : 0,
					"mode" : 4
				}
			]
		},
		{
			"name" : "mesh_m6-PolyPaper20_-135168",
			"primitives" : 
			[
				{
					"attributes" : 
					{
						"COLOR_0" : 6,
						"NORMAL" : 20,
						"POSITION" : 27
					},
					"indices" : 13,
					"material" : 0,
					"mode" : 4
				}
			]
		}
	],
	"nodes" : 
	[
		{
			"matrix" : 
			[
				1,
				0,
				0,
				0,
				0,
				1,
				0,
				0,
				0,
				0,
				1,
				0,
				0,
				0,
				0,
				1
			],
			"mesh" : 4,
			"name" : "node_MeshObject-1492731904-PolyPaper20"
		},
		{
			"matrix" : 
			[
				1,
				0,
				0,
				0,
				0,
				1,
				0,
				0,
				0,
				0,
				1,
				0,
				0,
				0,
				0,
				1
			],
			"mesh" : 3,
			"name" : "node_MeshObject-2064811008-PolyGlass24"
		},
		{
			"matrix" : 
			[
				1,
				0,
				0,
				0,
				0,
				1,
				0,
				0,
				0,
				0,
				1,
				0,
				0,
				0,
				0,
				1
			],
			"mesh" : 5,
			"name" : "node_MeshObject-920652800-PolyPaper21"
		},
		{
			"matrix" : 
			[
				1,
				0,
				0,
				0,
				0,
				1,
				0,
				0,
				0,
				0,
				1,
				0,
				0,
				0,
				0,
				1
			],
			"mesh" : 1,
			"name" : "node_MeshObject1085998080-PolyPaper18"
		},
		{
			"matrix" : 
			[
				1,
				0,
				0,
				0,
				0,
				1,
				0,
				0,
				0,
				0,
				1,
				0,
				0,
				0,
				0,
				1
			],
			"mesh" : 2,
			"name" : "node_MeshObject1658077184-PolyPaper19"
		},
		{
			"matrix" : 
			[
				1,
				0,
				0,
				0,
				0,
				1,
				0,
				0,
				0,
				0,
				1,
				0,
				0,
				0,
				0,
				1
			],
			"mesh" : 6,
			"name" : "node_MeshObject1948490752-PolyPaper20"
		},
		{
			"matrix" : 
			[
				1,
				0,
				0,
				0,
				0,
				1,
				0,
				0,
				0,
				0,
				1,
				0,
				0,
				0,
				0,
				1
			],
			"mesh" : 0,
			"name" : "node_MeshObject513918976-PolyPaper19"
		}
	],
	"scene" : 0,
	"scenes" : 
	[
		{
			"extras" : {},
			"name" : "defaultScene",
			"nodes" : 
			[
				6,
				3,
				4,
				1,
				0,
				2,
				5
			]
		}
	]
}